<svg id="Componente_3_1" data-name="Componente 3 – 1" xmlns="http://www.w3.org/2000/svg" width="165.641" height="134.889" viewBox="0 0 165.641 134.889">
  <path id="Trazado_12" data-name="Trazado 12" d="M236.528,199.029l56.881,35.115L330.343,210.6l-58.006-33.87Z" transform="translate(-227.726 -131.092)" fill="none"/>
  <path id="Trazado_13" data-name="Trazado 13" d="M368.066,144.47l59.116,34.518.02.014a3.037,3.037,0,0,1,1.6,2.674v44.3l16.307-10.561V169.676l-61.052-35.394Z" transform="translate(-317.204 -102.217)" fill="none"/>
  <path id="Trazado_14" data-name="Trazado 14" d="M470.511,54.537l-34.9,21.729,57.867,33.548L528.795,87.3Z" transform="translate(-363.153 -47.97)" fill="none"/>
  <path id="Trazado_15" data-name="Trazado 15" d="M357.791,97.877a2.61,2.61,0,0,0-2.806-4.4l-30.878,19.683v-6.722l33.683-21.472a2.61,2.61,0,0,0-2.806-4.4l-30.877,19.683v-8.92l33.683-21.472a2.61,2.61,0,0,0-.124-4.476l-55.22-31.044a2.611,2.611,0,0,0-2.658.059L210.23,90.164a2.61,2.61,0,0,0,.009,4.436l53.846,33.242a2.61,2.61,0,0,0,2.774-.02l32.8-20.909v8.92L265.433,137.65,212.98,105.268a2.61,2.61,0,0,0-2.742,4.442l53.846,33.242a2.61,2.61,0,0,0,2.774-.02l32.8-20.909v6.722l-34.225,21.817L212.98,118.18a2.61,2.61,0,0,0-2.742,4.442l53.846,33.242a2.61,2.61,0,0,0,2.774-.02l32.8-20.909v6.447L265.433,163.2,212.98,130.818a2.61,2.61,0,0,0-2.742,4.442L264.084,168.5a2.61,2.61,0,0,0,2.774-.02L300.5,147.038a2.6,2.6,0,0,0,3.191.279l19.23-12.454a2.61,2.61,0,0,0,1.191-2.191v-.686l33.683-21.472a2.61,2.61,0,0,0-2.806-4.4L324.108,125.8v-6.447ZM265.433,122.54,216.562,92.37l30.766-19.158,49.837,29.1Zm53.456-18.966v27.679l-14.01,9.074V102.269a2.609,2.609,0,0,0-1.371-2.3l-.018-.012L252.7,70.3l13.736-8.754,52.454,30.41Zm2.085-16.439L271.256,58.312l29.981-18.669,50.076,28.152Z" transform="translate(-208.999 -34.001)" fill="#f48948"/>
</svg>
