<svg width="30" height="30" xmlns="http://www.w3.org/2000/svg">
 <defs>
  <style>.cls-1{fill:#2072bc;}.cls-2{fill:none;}</style>
 </defs>
 <title>Recurso 1</title>
 <g>
  <title>Layer 1</title>
  <g stroke="null" id="Capa_2">
   <g stroke="null" id="Capa_4">
    <path stroke="null" d="m14.25001,6.44559a8.81522,8.42073 0 1 0 8.80285,8.42073l0,0a8.82758,8.43254 0 0 0 -8.80285,-8.42073zm0,14.43215a6.29305,6.01143 0 1 1 6.29305,-6.01143l0,0a6.30541,6.02324 0 0 1 -6.29305,6.01143z" class="cls-1" id="Trazado_17"/>
    <path stroke="null" d="m31.32408,-1.29014a24.05948,22.98279 0 0 0 -34.02451,-0.10629l-0.11127,0.10629c-8.44431,8.10185 -9.51994,23.3371 -2.27489,32.56092l19.3366,26.79751l19.31188,-26.76208c7.26977,-9.25925 6.19414,-24.4945 -2.23781,-32.59635zm0.19782,31.17912l-17.30898,23.92761l-17.30898,-23.96304c-6.49086,-8.3971 -5.52651,-22.12064 2.06471,-29.43119a21.54968,20.58531 0 0 1 30.47617,-0.09448l0.0989,0.09448c7.61595,7.31055 8.55558,21.05771 1.97817,29.52568l0,-0.05905l0,-0.00001z" class="cls-1" id="Trazado_18"/>
    <rect stroke="null" x="-19.74977" y="-9.25026" id="svg_1" height="68.49957" width="67.99956" class="cls-2"/>
   </g>
  </g>
 </g>
</svg>