<svg xmlns="http://www.w3.org/2000/svg" viewBox="0 0 55 58"><defs><style>.cls-1{fill:#2072bc;}.cls-2{fill:none;}</style></defs><title>Recurso 2</title><g id="Capa_2" data-name="Capa 2"><g id="Capa_2-2" data-name="Capa 2"><path id="Trazado_19" data-name="Trazado 19" class="cls-1" d="M50.27,12H4.73A3.73,3.73,0,0,0,1,15.78V42.22A3.73,3.73,0,0,0,4.73,46H50.27A3.73,3.73,0,0,0,54,42.22V15.78A3.73,3.73,0,0,0,50.27,12Zm1.91,30.17a1.92,1.92,0,0,1-1.91,1.92H4.73a1.92,1.92,0,0,1-1.91-1.92V15.78a1.92,1.92,0,0,1,1.91-1.92H50.27a1.92,1.92,0,0,1,1.91,1.92Z"/><path id="Trazado_20" data-name="Trazado 20" class="cls-1" d="M47.31,23.06H27.22a1,1,0,1,0,0,1.93H47.31a1,1,0,1,0,0-1.93Z"/><path id="Trazado_21" data-name="Trazado 21" class="cls-1" d="M47.31,28H27.22a1,1,0,0,0,0,1.93h20.1a1,1,0,1,0,0-1.93Z"/><path id="Trazado_22" data-name="Trazado 22" class="cls-1" d="M35.85,33H27.22a1,1,0,1,0,0,1.93h8.63a1,1,0,1,0,0-1.93Z"/><path id="Trazado_23" data-name="Trazado 23" class="cls-1" d="M21.47,32l-.2-.19a4.18,4.18,0,0,0-.7-.49A4.52,4.52,0,0,0,20,31a15.81,15.81,0,0,0-3.46-1A5.05,5.05,0,1,0,9.25,24.4a5,5,0,0,0-.13.75,5,5,0,0,0,2.6,4.94,15.79,15.79,0,0,0-3.46,1,4.45,4.45,0,0,0-.53.25,4.19,4.19,0,0,0-.69.49L6.83,32a3.8,3.8,0,0,0-.52.65,3.47,3.47,0,0,0-.55,1.86v2.57H22.54V34.49A3.47,3.47,0,0,0,22,32.64,3.81,3.81,0,0,0,21.47,32ZM10.81,25.67a3.39,3.39,0,0,1,0-.34,3.34,3.34,0,0,1,6.39-1,3.28,3.28,0,0,1,.24,1,3.34,3.34,0,0,1-6.64.67Q10.81,25.83,10.81,25.67Zm10,9.68H7.48v-.85a1.76,1.76,0,0,1,.28-.94A2.08,2.08,0,0,1,8,33.2l.12-.11a2.49,2.49,0,0,1,.41-.29l.32-.15a14,14,0,0,1,10.51,0l.32.15a2.47,2.47,0,0,1,.42.29l.11.11a2.12,2.12,0,0,1,.29.36,1.76,1.76,0,0,1,.28.94Z"/></g><g id="Capa_3" data-name="Capa 3"><rect class="cls-2" width="55" height="58"/></g></g></svg>