<svg xmlns="http://www.w3.org/2000/svg" viewBox="0 0 55 58"><defs><style>.cls-1{fill:#2072bc;}.cls-2{fill:none;}</style></defs><title>Recurso 1</title><g id="Capa_2" data-name="Capa 2"><g id="Capa_4" data-name="Capa 4"><path id="Trazado_17" data-name="Trazado 17" class="cls-1" d="M27.5,13.29a7.13,7.13,0,1,0,7.12,7.13h0A7.14,7.14,0,0,0,27.5,13.29Zm0,12.22a5.09,5.09,0,1,1,5.09-5.09h0A5.1,5.1,0,0,1,27.5,25.51Z"/><path id="Trazado_18" data-name="Trazado 18" class="cls-1" d="M41.31,6.74a19.46,19.46,0,0,0-27.52-.09l-.09.09C6.87,13.6,6,26.5,11.86,34.31L27.5,57,43.12,34.34C49,26.5,48.13,13.6,41.31,6.74Zm.16,26.4-14,20.26-14-20.29C8.22,26,9,14.38,15.14,8.19a17.43,17.43,0,0,1,24.65-.08l.08.08c6.16,6.19,6.92,17.83,1.6,25Z"/><rect class="cls-2" width="55" height="58"/></g></g></svg>