<svg xmlns="http://www.w3.org/2000/svg" viewBox="0 0 55 58"><defs><style>.cls-1{fill:#2072bc;}.cls-2{fill:none;}</style></defs><title>Recurso 3</title><g id="Capa_2" data-name="Capa 2"><g id="Capa_1-2" data-name="Capa 1"><g id="Grupo_8" data-name="Grupo 8"><path id="Trazado_16" data-name="Trazado 16" class="cls-1" d="M51.83,13a8.49,8.49,0,0,0-2.29-4.29,6.86,6.86,0,0,0-1.2-1l-.06-.06c-.06-.06-.11-.06-.17-.11a2.32,2.32,0,0,0-.51-.29h-.06a8.46,8.46,0,0,0-4-1H40V3.84a1.09,1.09,0,1,0-2.18,0V6.19H17.25V3.84a1.13,1.13,0,0,0-1.09-1.09,1.09,1.09,0,0,0-1.09,1.09h0V6.19H11.53a8.35,8.35,0,0,0-3.15.63A8.91,8.91,0,0,0,5.52,8.71a9.78,9.78,0,0,0-1.2,1.49A10.15,10.15,0,0,0,3.46,12a6.92,6.92,0,0,0-.29,1A8.74,8.74,0,0,0,3,14.72V46.83a8.4,8.4,0,0,0,8.39,8.41H43.59A8.4,8.4,0,0,0,52,46.85s0,0,0,0V14.72A8.74,8.74,0,0,0,51.83,13ZM5.23,14.66a8.57,8.57,0,0,1,.11-1.26,9.48,9.48,0,0,1,.34-1.2,7.88,7.88,0,0,1,.8-1.37c.17-.23.34-.4.51-.63a8.92,8.92,0,0,1,1.14-.92,6.36,6.36,0,0,1,3.26-.91H15v2.34a1.09,1.09,0,1,0,2.18,0h0V8.37H38v2.34a1.09,1.09,0,1,0,2.18,0V8.37H43.7A6.21,6.21,0,0,1,47,9.28a8.92,8.92,0,0,1,1.14.92,6.06,6.06,0,0,1,1.72,3.21,9.36,9.36,0,0,1,.11,1.26v4.69H5.23ZM50,46.77a6.26,6.26,0,0,1-6.16,6.35H11.53a6.25,6.25,0,0,1-6.3-6.21s0-.06,0-.09V21.47H50v25.3Z"/></g></g><g id="Capa_3" data-name="Capa 3"><rect class="cls-2" width="55" height="58"/></g></g></svg>