<svg id="Capa_1" data-name="Capa 1" xmlns="http://www.w3.org/2000/svg" viewBox="0 0 301 91"><defs><style>.cls-1{fill:#fff;}.cls-2{fill:orange;}</style></defs><polygon class="cls-1" points="24.07 52.09 24.06 23.15 24.06 22.55 23.46 22.55 20.46 22.56 19.86 22.56 19.86 23.15 19.86 55.87 19.86 56.47 20.46 56.47 34.21 56.47 34.81 56.47 34.81 55.87 34.81 52.69 34.81 52.09 34.21 52.09 24.07 52.09"/><path class="cls-1" d="M61.59,30.57H57.5v2.82a10.46,10.46,0,0,0-2.8-2.15A11.15,11.15,0,0,0,49.54,30h0a11.85,11.85,0,0,0-9.06,3.92,13.77,13.77,0,0,0-3.61,9.69,13.83,13.83,0,0,0,3.53,9.58,11.6,11.6,0,0,0,8.88,3.9,11.74,11.74,0,0,0,5.38-1.26,10.68,10.68,0,0,0,2.86-2.15v2.77H61.6V30.57ZM49.43,34.15A7.29,7.29,0,0,1,55,36.88a9.28,9.28,0,0,1,2.48,6.46,10.1,10.1,0,0,1-2.46,6.83A7.29,7.29,0,0,1,49.37,53a7.55,7.55,0,0,1-5.81-2.65,9.47,9.47,0,0,1-2.46-6.57,9.89,9.89,0,0,1,2.46-6.86A7.53,7.53,0,0,1,49.43,34.15Z"/><path class="cls-1" d="M91.05,23l-.14-.4H86.46l-.15.4L74.48,55.66l-.3.79h4.45l.14-.4,3.51-9.86H95l3.52,9.87.14.4h4.48l-.29-.8Zm2.5,19.11h-9.8l4.86-14Z"/><path class="cls-1" d="M116.19,30.78v-.61l-.61,0a6.73,6.73,0,0,0-3.29.9,6.17,6.17,0,0,0-1.46,1.2V30.56h-4v25.9H111V41c0-2.13.36-3.67,1.07-4.56a5,5,0,0,1,3.56-1.56l.55-.05v-.55Z"/><path class="cls-1" d="M143.2,30.56h-4.07v2.82a10.25,10.25,0,0,0-2.82-2.15A11.09,11.09,0,0,0,131.15,30a11.9,11.9,0,0,0-9.07,3.92,13.81,13.81,0,0,0-3.6,9.69A13.75,13.75,0,0,0,122,53.19a11.52,11.52,0,0,0,8.9,3.91,11.64,11.64,0,0,0,5.35-1.26,10.68,10.68,0,0,0,2.87-2.15v2.77h4.08v-.59l0-24.71ZM131,53.26V53a7.57,7.57,0,0,1-5.81-2.64,9.3,9.3,0,0,1-2.44-6.57,10,10,0,0,1,2.46-6.87,7.61,7.61,0,0,1,5.87-2.73,7.34,7.34,0,0,1,5.6,2.73,9.41,9.41,0,0,1,2.47,6.46,10.07,10.07,0,0,1-2.46,6.83A7.26,7.26,0,0,1,131,53v.3Z"/><path class="cls-1" d="M169.17,30.56H165V43.31a30.39,30.39,0,0,1-.22,4.46,6.91,6.91,0,0,1-.69,2.1,5.89,5.89,0,0,1-2.21,2.27,6.31,6.31,0,0,1-3.19.78c-2.13,0-3.66-.63-4.55-1.85s-1.42-3.59-1.42-6.8V30.56H148.6V44c0,4.57.78,7.92,2.33,9.94s4.16,3.12,7.68,3.12a9.75,9.75,0,0,0,4.26-.84,7.58,7.58,0,0,0,2.13-1.5v1.7h4.17V30.56Z"/><path class="cls-1" d="M185.7,34.07A7.64,7.64,0,0,1,190,35.26,9.31,9.31,0,0,1,193.15,39l.17.33h4.49l-.29-.8A13.56,13.56,0,0,0,193,32.17a11.26,11.26,0,0,0-7-2.3,11.74,11.74,0,0,0-8.95,4,13.87,13.87,0,0,0-3.64,9.69,13.77,13.77,0,0,0,3.61,9.57,12,12,0,0,0,16,1.7,13.33,13.33,0,0,0,4.41-6.51l.26-.8H193.3l-.15.36a8.15,8.15,0,0,1-2.91,3.7,7.44,7.44,0,0,1-4.39,1.32,7.24,7.24,0,0,1-5.73-2.66,9.9,9.9,0,0,1-2.35-6.74,9.94,9.94,0,0,1,2.33-6.77A7,7,0,0,1,185.7,34.07Z"/><path class="cls-1" d="M226.24,30.56h-4.07v2.83a10.34,10.34,0,0,0-2.8-2.16A11,11,0,0,0,214.23,30h0a11.87,11.87,0,0,0-9.06,3.92,13.8,13.8,0,0,0-3.61,9.69,13.82,13.82,0,0,0,3.53,9.57,11.6,11.6,0,0,0,8.9,3.92,11.76,11.76,0,0,0,5.36-1.27,10.67,10.67,0,0,0,2.87-2.16v2.78h4.08v-.6l0-24.7ZM214.1,34.15a7.38,7.38,0,0,1,5.61,2.73,9.38,9.38,0,0,1,2.46,6.46,10,10,0,0,1-2.46,6.83A7.28,7.28,0,0,1,214,53h0a7.55,7.55,0,0,1-5.81-2.65,9.38,9.38,0,0,1-2.45-6.57,10,10,0,0,1,2.46-6.87A7.53,7.53,0,0,1,214.1,34.15Z"/><path class="cls-1" d="M250.63,34.25a8.34,8.34,0,0,0-3.38-3.12,10.4,10.4,0,0,0-4.79-1.07,10.63,10.63,0,0,0-4.34.85,8.79,8.79,0,0,0-2.31,1.54V30.56h-4.08v.6l0,24.71v.6h4.08V43.84a30.73,30.73,0,0,1,.21-4.4,7,7,0,0,1,.7-2.12,5.57,5.57,0,0,1,2.17-2.24,6.34,6.34,0,0,1,3.23-.79c2.12,0,3.61.57,4.54,1.75s1.43,3.21,1.43,6V56.46h4.11V43a32.53,32.53,0,0,0-.36-5.39A10.49,10.49,0,0,0,250.63,34.25Z"/><path class="cls-1" d="M281.23,31.17v-.6h-4.08v2.82a10.46,10.46,0,0,0-2.8-2.15A11.16,11.16,0,0,0,269.18,30a11.87,11.87,0,0,0-9.07,3.92,13.81,13.81,0,0,0-3.6,9.69A13.76,13.76,0,0,0,260,53.2a12,12,0,0,0,14.26,2.63,10.4,10.4,0,0,0,2.86-2.14v2.77h4.07V31.17Zm-12.15,3a7.33,7.33,0,0,1,5.6,2.72,9.32,9.32,0,0,1,2.48,6.46,10.07,10.07,0,0,1-2.46,6.83A7.37,7.37,0,0,1,269,53a7.58,7.58,0,0,1-5.82-2.65,9.44,9.44,0,0,1-2.44-6.57,9.93,9.93,0,0,1,2.46-6.87A7.58,7.58,0,0,1,269.08,34.16Z"/><path class="cls-2" d="M186.9,71.18a1.55,1.55,0,0,0-.5-1.19,1.81,1.81,0,0,0-1.26-.46q-3.1,0-7.5,5l.78-1.18q1.62-2.43,1.62-3.3c0-.38-.15-.56-.44-.56a3.4,3.4,0,0,0-2.84,1.06,14.47,14.47,0,0,0-1.16,1.79c-.22.4-.91,1.56-2,3.47s-2,3.35-2.53,4.3l-.25.44h0a11.73,11.73,0,0,1-1.87,1,13.22,13.22,0,0,1-2.3.71,12.23,12.23,0,0,1-2.8.33,2.53,2.53,0,0,1-2-.66,2.26,2.26,0,0,1-.59-1.58,5.75,5.75,0,0,1,.56-2.44,15.22,15.22,0,0,0,3.7.52,9.06,9.06,0,0,0,3.45-.64A6.39,6.39,0,0,0,172.11,75a4.45,4.45,0,0,0,.06-4.48c-.71-1-2.53-2.38-6.8-.09A13.57,13.57,0,0,0,162,73.05v0a13.26,13.26,0,0,0-2.65,3.62,10,10,0,0,0-.89,2.65l-.49.42c-.19.15-.6.44-1.25.85a12.09,12.09,0,0,1-1.86,1,13.36,13.36,0,0,1-2.31.71,12.08,12.08,0,0,1-2.79.33,2.54,2.54,0,0,1-2-.66,2.31,2.31,0,0,1-.59-1.58A6.61,6.61,0,0,1,149,76a15.76,15.76,0,0,1,1.82-1.75A17.89,17.89,0,0,1,153,72.73a4.24,4.24,0,0,1,2.2-.71q.21,0,.21.27a2.53,2.53,0,0,1-.56,1,2.36,2.36,0,0,0-.56,1.07c0,.76.4,1.14,1.19,1.14s1.36-.47,2-1.41a4.51,4.51,0,0,0,1-2.42,1.86,1.86,0,0,0-.81-1.59,3,3,0,0,0-1.81-.58,10.32,10.32,0,0,0-4.23,1A13.38,13.38,0,0,0,147.89,73a13.23,13.23,0,0,0-2.64,3.62,9.3,9.3,0,0,0-1,4.13,4.11,4.11,0,0,0,1.57,3.34,5.4,5.4,0,0,0,3.52,1.28,14,14,0,0,0,4.73-1,18.07,18.07,0,0,0,2.64-1.18,7.2,7.2,0,0,0,1.73-1.32,4.06,4.06,0,0,0,1.45,2.25,5.35,5.35,0,0,0,3.51,1.28,14.07,14.07,0,0,0,4.74-1c.35-.12.69-.27,1-.41a.42.42,0,0,0,.11.17,3.8,3.8,0,0,0,.81.37,3.34,3.34,0,0,0,1.06.25c.27,0,.59-.27,1-.8a57.75,57.75,0,0,1,3.71-4.57q1.71-1.87,4.14-4.25c1.63-1.58,2.64-2.39,3.05-2.42l0,0a4.79,4.79,0,0,0-1.38,2.92,1.58,1.58,0,0,0,.33,1,1.06,1.06,0,0,0,.91.43A1.37,1.37,0,0,0,184,76.5c.58-.79,1.22-1.75,1.91-2.89A5.91,5.91,0,0,0,186.9,71.18Zm-20.22,1.67c1.88-1,3-1.07,3.2-.78a1.87,1.87,0,0,1-.22,1.59,3.66,3.66,0,0,1-1.78,1.57,7.83,7.83,0,0,1-4.36.24A11.35,11.35,0,0,1,166.68,72.85ZM216,79.39c-.05-.36-.19-.54-.43-.54a.55.55,0,0,0-.34.09c-.07.06-.3.31-.68.73s-.77.84-1.16,1.24A9.11,9.11,0,0,1,212,82.05a2.4,2.4,0,0,1-1.32.53c-.38,0-.56-.34-.56-1a2.37,2.37,0,0,1,.05-.53,16.89,16.89,0,0,1,1.24-3.65c.65-1.42,1.23-2.59,1.76-3.51a10.51,10.51,0,0,1,1-1.61,1.06,1.06,0,0,0,.24-.77c0-.64-.47-1-1.42-1a1.84,1.84,0,0,0-.92.18,2.75,2.75,0,0,0-.76.85,1.51,1.51,0,0,0-.8-.84,3.58,3.58,0,0,0-1.65-.34,9.57,9.57,0,0,0-5.71,2.43,20.56,20.56,0,0,0-2.71,2.57,12.25,12.25,0,0,0-2,3.11,9.72,9.72,0,0,0-.49,1.4c-.22.16-.56.39-1,.69a12.09,12.09,0,0,1-1.86,1,13.64,13.64,0,0,1-2.31.71,12.08,12.08,0,0,1-2.79.33,2.54,2.54,0,0,1-2-.66,2.31,2.31,0,0,1-.59-1.58A6.56,6.56,0,0,1,189.36,76a15.76,15.76,0,0,1,1.82-1.75,17.89,17.89,0,0,1,2.14-1.49,4.24,4.24,0,0,1,2.2-.71q.21,0,.21.27a2.53,2.53,0,0,1-.56,1,2.36,2.36,0,0,0-.56,1.07c0,.76.39,1.14,1.19,1.14a2.7,2.7,0,0,0,2-1.41,4.49,4.49,0,0,0,1-2.42,1.85,1.85,0,0,0-.8-1.59,3.05,3.05,0,0,0-1.81-.58,10.32,10.32,0,0,0-4.23,1A13.38,13.38,0,0,0,188.23,73a13,13,0,0,0-2.64,3.62,9.17,9.17,0,0,0-1,4.13,4.08,4.08,0,0,0,1.57,3.34,5.38,5.38,0,0,0,3.52,1.28,14,14,0,0,0,4.73-1A18,18,0,0,0,197,83.19a6.91,6.91,0,0,0,.83-.53,3.17,3.17,0,0,0,1,1.86,2.86,2.86,0,0,0,2.07.77,6.31,6.31,0,0,0,3.27-1.4,15.79,15.79,0,0,0,3.56-3.42,4.74,4.74,0,0,0-.37,2,3.2,3.2,0,0,0,.71,2,2.62,2.62,0,0,0,2.21.91,5.49,5.49,0,0,0,3.34-1.49A8.94,8.94,0,0,0,216,81.31a1.88,1.88,0,0,0,.11-.8A8.11,8.11,0,0,0,216,79.39Zm-8.83-2.22a28,28,0,0,1-3.17,3c-1.6,1.38-2.57,2.07-2.92,2.07s-.37-.22-.37-.66a6.5,6.5,0,0,1,1-2.43,15.83,15.83,0,0,1,2.23-3c2.28-2.36,4.48-3.55,6.61-3.55Q208,76.09,207.19,77.17Z"/><path class="cls-2" d="M121.59,68a9.54,9.54,0,0,0,2.85-1.29,18.68,18.68,0,0,0,2.8-1.77,3,3,0,0,0,1.57-2.56,2.59,2.59,0,0,0-.35-1.22c-.23-.43-.47-.65-.72-.65a.48.48,0,0,0-.5.34,1.54,1.54,0,0,1-.4.6,10.54,10.54,0,0,1-1,.77c-.49.34-1.06.78-1.7,1.3a16.75,16.75,0,0,0-1.79,1.67,6.24,6.24,0,0,0-1.22,2,.79.79,0,0,0-.09.35C121,67.88,121.22,68,121.59,68Zm16.76.73a14.09,14.09,0,0,0-5.21,1.29,18.78,18.78,0,0,0-2.93,1.51,8.34,8.34,0,0,0-2.27,2.06,4,4,0,0,0-.91,2.43,2.1,2.1,0,0,0,.88,1.84,3.89,3.89,0,0,0,.8.46,8,8,0,0,0,1.07.37c.44.13,1.16.31,2.15.54a18.39,18.39,0,0,1,2.11.58c.42.15.63.34.63.55,0,.45-.58.89-1.73,1.34a10.83,10.83,0,0,1-4,.67,1,1,0,0,1-.65-.33,1.06,1.06,0,0,1-.35-.8V81c0-.18-.12-.29-.35-.35v-.12a8.09,8.09,0,0,0-.08-1.12c0-.36-.19-.54-.43-.54a.52.52,0,0,0-.33.09c-.08.06-.3.31-.68.73s-.77.84-1.17,1.24a9,9,0,0,1-1.36,1.14,2.4,2.4,0,0,1-1.33.53c-.37,0-.56-.34-.56-1a1.84,1.84,0,0,1,.06-.53A16.36,16.36,0,0,1,123,77.38c.64-1.42,1.23-2.59,1.75-3.51a11.41,11.41,0,0,1,1-1.61,1.06,1.06,0,0,0,.24-.77c0-.64-.47-1-1.42-1a1.87,1.87,0,0,0-.92.18,2.88,2.88,0,0,0-.76.85,1.51,1.51,0,0,0-.8-.84,3.54,3.54,0,0,0-1.64-.34,9.55,9.55,0,0,0-5.71,2.43,19.39,19.39,0,0,0-2.71,2.57,12.29,12.29,0,0,0-2,3.11,9.53,9.53,0,0,0-.58,1.76l-.62.59A13.47,13.47,0,0,1,107.42,82a3.14,3.14,0,0,1-1.26.58,1.57,1.57,0,0,1-.77-.12c-.21-.11-.31-.45-.31-1a9.16,9.16,0,0,1,1.5-3c1-1.59,2-3.17,3-4.74a8.89,8.89,0,0,0,1.52-3,1.43,1.43,0,0,0-.49-1.07,1.68,1.68,0,0,0-1.19-.45,7.57,7.57,0,0,0-4.09,1.27,14.07,14.07,0,0,0-1.81,1.41q-1,.87-1.62,1.56l-1.58,1.72c-.62.68-1.1,1.2-1.45,1.55,0,0,.18-.23.47-.58s.49-.59.58-.71l.52-.68a6,6,0,0,0,.53-.81l.38-.74a3.79,3.79,0,0,0,.31-.84,4.85,4.85,0,0,0,.08-1,1.63,1.63,0,0,0-.49-1.14,1.82,1.82,0,0,0-1.42-.53,6.85,6.85,0,0,0-3,1.3,26.28,26.28,0,0,0-4.62,3.94l.94-1.15c.54-.68,1-1.27,1.41-1.8a6.52,6.52,0,0,0,.75-1.13,1.47,1.47,0,0,0,.15-.55c0-.48-.16-.72-.47-.72a5.18,5.18,0,0,0-1.61.27,2.27,2.27,0,0,0-1.21.79,79.4,79.4,0,0,0-7,12.81,2.72,2.72,0,0,0-.15.68.29.29,0,0,0,.11.27l.33.24a1.28,1.28,0,0,0,.4.23h.33l.92,0c.11,0,.33-.18.65-.56a8,8,0,0,0,.66-.82,41.29,41.29,0,0,1,7.31-9c1.15-1.09,1.9-1.64,2.27-1.64s.55.15.55.46-1,2.14-3,5.5-3,5.12-3,5.24.21.45.65.61a3.82,3.82,0,0,0,1.26.23,1,1,0,0,0,.89-.37q2.45-3.19,3.09-4a71.92,71.92,0,0,1,5.9-6.16c1.34-1.25,2.19-1.87,2.58-1.87.1,0,.15,0,.15.1a8.33,8.33,0,0,1-.81,1.2c-.54.74-1.14,1.57-1.78,2.49a21.11,21.11,0,0,0-1.79,3.08,7,7,0,0,0-.81,2.9,3.1,3.1,0,0,0,.74,2.06,3.85,3.85,0,0,0,2.66,1,1.15,1.15,0,0,0,.3,0,5.67,5.67,0,0,0,3.54-1.51c.16-.12.3-.25.44-.37a3,3,0,0,0,.72,1,2.9,2.9,0,0,0,2.07.77,6.34,6.34,0,0,0,3.28-1.4,16,16,0,0,0,3.56-3.42,4.74,4.74,0,0,0-.38,2,3.26,3.26,0,0,0,.71,2,2.63,2.63,0,0,0,2.21.91,5.51,5.51,0,0,0,3.35-1.49l.44-.37a2.12,2.12,0,0,0,.81,1.22,5.12,5.12,0,0,0,3.08.68,12.27,12.27,0,0,0,5.23-1.47,7.47,7.47,0,0,0,2.36-1.74,3.36,3.36,0,0,0,.95-2.26,2.46,2.46,0,0,0-.47-1.29,4,4,0,0,0-1.68-1.27,27.87,27.87,0,0,0-5.08-1.32c-.57-.11-.85-.26-.85-.44s.21-.46.63-.85a12.29,12.29,0,0,1,1.6-1.21,11.47,11.47,0,0,1,2.3-1.15,8.48,8.48,0,0,1,2.58-.57,1.45,1.45,0,0,1-.26.49.73.73,0,0,0-.19.46.27.27,0,0,0,.14.28.58.58,0,0,1,.23.18.75.75,0,0,0,.24.19,1.72,1.72,0,0,0,.67.08,4.55,4.55,0,0,0,2.76-1.46,2.53,2.53,0,0,0,.42-1.55v-.13a1.67,1.67,0,0,0-.15-.71C140.58,69.07,139.73,68.77,138.35,68.77Zm-19.63,8.4a28,28,0,0,1-3.17,3q-2.39,2.07-2.91,2.07c-.25,0-.38-.22-.38-.66a6.5,6.5,0,0,1,1-2.43,15.83,15.83,0,0,1,2.23-3c2.28-2.36,4.48-3.55,6.61-3.55Q119.59,76.09,118.72,77.17Z"/><path class="cls-1" d="M78,75.66H11a10.05,10.05,0,0,1-10-10v-50a10,10,0,0,1,10-10H290a10,10,0,0,1,10,10V64.84a10,10,0,0,1-10,10H226A1.95,1.95,0,0,1,226,71h64a6.16,6.16,0,0,0,6.16-6.15V15.63A6.16,6.16,0,0,0,290,9.48H11a6.16,6.16,0,0,0-6.16,6.15v50A6.16,6.16,0,0,0,11,71.77H78a1.95,1.95,0,1,1,0,3.89Z"/></svg>